# xmcd
#
# Track frame offsets: 
#        150
#        11511
#        24507
#        37618
#        50401
#        65922
#        78632
#        95135
#        108472
#        123161
#        137466
#        151528
#        162936
#        176893
#        190165
#        204538
#        217414
#        229730
#        243863
#        257074
#
# Disc length: 3602 seconds
#
# Revision: 0
# Processed by: cddbd v1.5.2PL0 Copyright (c) Steve Scherf et al.
# Submitted via: ExactAudioCopy v0.99pb5
#
DISCID=100e1014
DTITLE=Various Artist - The Kings Of The Delta Blues CD1
DYEAR=2018
DGENRE=Blues
TTITLE0=Robert Johnson - Cross Road Blues (1937)
TTITLE1=Skip James - I'm So Glad (1931)
TTITLE2=Robert Wilkins - That's No Way To Get Along (1929)
TTITLE3=Big Joe Williams - Crawlin' King Snake (1941)
TTITLE4=Muddy Waters - Country Blues (1941)
TTITLE5=Bukka White - Fixin' To Die Blues (1940)
TTITLE6=Tommy Johnson - Canned Heat Blues (1928)
TTITLE7=Mississippi John Hurt - Stack O' Lee Blues (1928)
TTITLE8=Arthur 'Big Boy' Crudup - Death Valley Blues (1941)
TTITLE9=Son House - My Black Mama (Part 1) (1930)
TTITLE10=Charley Patton - Mississippi Bo Weavil Blues (1929)
TTITLE11=Sam Collins - The Yellow Dog Blues (1927)
TTITLE12=Robert Lockwood Jr. - Little Boy Blue (1941)
TTITLE13=Bo Carter - My Pencil Won't Write No More (1931)
TTITLE14=William Harris - Bullfrog Blues (1928)
TTITLE15=Tommy McLennan - Highway No. 51 (1940)
TTITLE16=Big Bill Broonzy - Mississippi River Blues (1934)
TTITLE17=Blind Willie McTell - Stomp Down Rider (1931)
TTITLE18=Sleepy John Estes - Hobo Jungle Blues (1937)
TTITLE19=Robert Petway - Bertha Lee Blues (1942)
EXTD=
EXTT0=
EXTT1=
EXTT2=
EXTT3=
EXTT4=
EXTT5=
EXTT6=
EXTT7=
EXTT8=
EXTT9=
EXTT10=
EXTT11=
EXTT12=
EXTT13=
EXTT14=
EXTT15=
EXTT16=
EXTT17=
EXTT18=
EXTT19=
PLAYORDER=
